<mxfile host="app.diagrams.net" modified="2023-05-23T08:08:22.677Z" agent="Mozilla/5.0 (Windows NT 10.0; Win64; x64) AppleWebKit/537.36 (KHTML, like Gecko) Chrome/113.0.0.0 Safari/537.36" version="21.3.2" etag="eJaf97gi3vlY77eUwMNE" type="github">
  <diagram name="페이지-1" id="y5hoyKD6ZR5i56k0jESU">
    <mxGraphModel>
      <root>
        <mxCell id="0" />
        <mxCell id="1" parent="0" />
      </root>
    </mxGraphModel>
  </diagram>
</mxfile>
